<!-- Generated by IcoMoon.io -->
<svg version="1.1" xmlns="http://www.w3.org/2000/svg" width="12" height="13" viewBox="0 0 504 512">
<title>linkedin</title>
<g id="icomoon-ignore">
</g>
<path d="M-0.127-0.002h496.003v496.003h-496.003zM455.246 377.705c-3.616-22.63-18.352-41.644-62.063-59.376-15.211-7.13-32.116-12.090-37.139-23.56-1.88-6.82-2.17-10.54-0.95-14.57 3.1-13.351 18.91-17.36 31.31-13.64 8.060 2.48 15.5 8.68 20.171 18.6 21.37-13.971 21.37-13.971 36.271-23.25-5.58-8.68-8.349-12.421-12.111-16.12-13.020-14.57-30.36-22.010-58.57-21.369l-14.57 1.839c-13.971 3.41-27.28 10.85-35.341 20.77-23.56 26.681-16.761 73.181 11.76 92.401 28.21 21.080 69.461 25.709 74.731 45.57 4.96 24.18-17.98 31.93-40.631 29.14-16.761-3.72-26.040-12.111-36.27-27.611l-37.82 21.721c4.34 9.92 9.3 14.24 16.74 22.92 35.961 36.291 125.861 34.431 142.002-20.75 0.599-1.86 4.96-14.57 1.529-34.1zM269.596 227.974h-46.459c0 40.053-0.186 79.856-0.186 119.971 0 25.462 1.302 48.836-2.852 56.027-6.82 14.24-24.387 12.421-32.364 9.92-8.184-4.050-12.338-9.63-17.154-17.67-1.302-2.17-2.274-4.050-2.625-4.050l-37.717 23.25c6.303 13.020 15.5 24.221 27.363 31.351 17.67 10.54 41.416 13.95 66.279 8.37 16.182-4.671 30.132-14.281 37.428-29.161 10.54-19.22 8.308-42.781 8.204-69.151 0.248-42.45 0-84.92 0-127.701z" fill="#ECC94B
"></path>
</svg>
