<!-- Generated by IcoMoon.io -->
<svg version="1.1" xmlns="http://www.w3.org/2000/svg" width="12" height="12" viewBox="0 0 512 512">
<title>linkedin</title>
<g id="icomoon-ignore">
</g>
<path d="M256 210.368c-25.202 0-45.632 20.43-45.632 45.632s20.43 45.632 45.632 45.632v0c25.202 0 45.632-20.43 45.632-45.632s-20.43-45.632-45.632-45.632v0zM128.171 346.774l-10.070-2.56c-75.050-18.966-118.102-51.157-118.102-88.298s43.050-69.334 118.102-88.298l10.070-2.538 2.838 9.984c8.714 29.767 18.603 55.083 30.385 79.311l-1.308-2.98 2.155 4.544-2.155 4.544c-10.504 21.271-20.395 46.589-28.181 72.812l-0.897 3.519zM113.43 190.934c-57.045 16.022-92.053 40.534-92.053 64.982 0 24.426 35.008 48.938 92.053 64.981 8.188-25.918 16.738-47.434 26.594-68.21l-1.379 3.23c-8.499-17.571-17.050-39.088-24.177-61.243l-1.039-3.738zM383.829 346.774l-2.837-10.005c-8.699-29.74-18.596-55.050-30.397-79.262l1.299 2.952-2.154-4.544 2.154-4.544c10.495-21.259 20.392-46.576 28.195-72.795l0.903-3.536 2.837-9.984 10.091 2.538c75.029 18.965 118.080 51.157 118.080 88.32s-43.050 69.333-118.080 88.299zM373.354 255.915c10.24 22.165 18.709 43.946 25.216 64.982 57.067-16.043 92.053-40.555 92.053-64.981 0-24.448-35.008-48.939-92.053-64.981-8.17 25.898-16.721 47.415-26.586 68.186l1.37-3.205zM113.28 190.827l-2.838-9.963c-21.099-74.368-14.698-127.659 17.558-146.262 31.637-18.262 82.432 3.306 135.659 57.941l7.253 7.445-7.253 7.445c-18.338 19.041-35.315 39.708-50.585 61.651l-1.084 1.645-2.88 4.118-5.013 0.427c-29.995 2.411-57.536 7.021-84.232 13.758l3.485-0.745zM153.728 49.386c-5.718 0-10.774 1.237-15.040 3.691-21.206 12.224-24.96 54.72-10.346 112.064 19.365-4.559 42.892-8.337 66.876-10.533l2.095-0.155c14.305-20.226 28.673-37.925 44.102-54.63l-0.327 0.358c-33.28-32.406-64.79-50.794-87.36-50.794zM358.293 483.776c-0.022 0-0.022 0 0 0-30.4 0-69.44-22.89-109.952-64.49l-7.254-7.445 7.254-7.445c18.332-19.045 35.301-39.719 50.563-61.669l1.085-1.649 2.88-4.118 4.992-0.426c30.001-2.397 57.559-7 84.269-13.736l-3.481 0.743 10.070-2.538 2.858 9.984c21.056 74.325 14.678 127.637-17.579 146.219-7.187 4.136-15.803 6.575-24.99 6.575-0.252 0-0.503-0.002-0.755-0.005l0.038 0zM270.912 411.648c33.28 32.406 64.79 50.794 87.36 50.794h0.022c5.696 0 10.774-1.238 15.019-3.69 21.206-12.224 24.981-54.742 10.346-112.085-19.384 4.568-42.918 8.346-66.912 10.535l-2.080 0.153c-14.286 20.236-28.648 37.944-44.079 54.649l0.324-0.355zM398.72 190.827l-10.070-2.538c-23.243-6.014-50.801-10.626-79.019-12.899l-1.769-0.114-4.992-0.427-2.88-4.118c-16.335-23.591-33.305-44.26-51.797-63.451l0.149 0.155-7.254-7.445 7.254-7.445c53.206-54.614 103.979-76.181 135.658-57.941 32.256 18.602 38.656 71.893 17.579 146.24zM314.666 154.453c24.363 2.219 47.51 5.824 68.992 10.688 14.635-57.344 10.858-99.84-10.346-112.064-21.077-12.181-60.693 6.486-102.4 47.104 15.094 16.345 29.456 34.045 42.649 52.631l1.106 1.641zM153.728 483.776c-0.22 0.003-0.478 0.005-0.738 0.005-9.186 0-17.803-2.44-25.238-6.707l0.248 0.131c-32.256-18.582-38.656-71.872-17.558-146.219l2.816-9.984 10.070 2.538c24.64 6.208 51.819 10.582 80.746 12.992l5.013 0.426 2.858 4.118c16.359 23.596 33.335 44.269 51.823 63.478l-0.154-0.161 7.253 7.445-7.253 7.445c-40.49 41.6-79.531 64.49-109.888 64.49zM128.341 346.666c-14.635 57.344-10.858 99.862 10.346 112.085 21.056 12.010 60.65-6.507 102.4-47.104-15.090-16.351-29.458-34.058-42.665-52.646l-1.111-1.647c-26.063-2.341-49.59-6.118-72.551-11.378l3.58 0.69zM256 360.064c-17.558 0-35.606-0.768-53.674-2.262l-5.013-0.426-2.88-4.118c-8.709-12.283-18.228-27.058-27.147-42.228l-1.653-3.041c-7.239-12.127-15.532-27.706-23.192-43.645l-1.683-3.885-2.133-4.544 2.133-4.544c9.338-19.82 17.631-35.398 26.526-50.581l-1.651 3.050c8.832-15.274 18.538-30.506 28.8-45.269l2.88-4.118 5.013-0.427c16.082-1.447 34.787-2.272 53.685-2.272s37.604 0.825 56.083 2.441l-2.397-0.169 4.992 0.427 2.858 4.118c18.825 26.654 36.711 57.074 52.032 88.959l1.663 3.841 2.154 4.544-2.154 4.544c-16.926 35.704-34.814 66.127-55.028 94.792l1.332-1.992-2.858 4.118-4.992 0.426c-18.070 1.493-36.139 2.262-53.696 2.262zM209.131 336.938c31.573 2.368 62.165 2.368 93.76 0 16.062-23.125 31.652-49.668 45.233-77.376l1.615-3.648c-15.149-31.328-30.748-57.874-48.193-83.043l1.324 2.019c-14.030-1.131-30.375-1.776-46.87-1.776s-32.839 0.645-49.008 1.911l2.138-0.135c-16.135 23.156-31.734 49.702-45.285 77.433l-1.584 3.591c15.215 31.36 30.813 57.903 48.224 83.096l-1.355-2.072z" fill="#81E6D9"></path>
</svg>
